<svg width="213" height="266" viewBox="0 0 213 266" fill="none" xmlns="http://www.w3.org/2000/svg">
  <rect x="57.582" width="159.505" height="233.251" rx="14" transform="rotate(14.2922 57.582 0)" fill="white" />
  <rect x="57.9431" y="0.607958" width="158.505" height="232.251" rx="13.5" transform="rotate(14.2922 57.9431 0.607958)"
    stroke="black" stroke-opacity="0.53" />
  <rect x="70.7906" y="16.3524" width="126.718" height="207.241" rx="14" transform="rotate(14.2922 70.7906 16.3524)"
    fill="white" />
  <rect x="71.1517" y="16.9603" width="125.718" height="206.241" rx="13.5" transform="rotate(14.2922 71.1517 16.9603)"
    stroke="black" stroke-opacity="0.53" />
  <path d="M129.748 46.9568L147.781 51.5508L125.398 64.0312L140.532 80.008L136.596 95.4562L118.563 90.8623"
    stroke="black" stroke-opacity="0.53" />
  <path d="M152.933 52.8633L170.966 57.4572L148.584 69.9376L163.717 85.9144L159.781 101.363L141.748 96.7687"
    stroke="black" stroke-opacity="0.53" />
  <path d="M83.7169 44.5813L101.187 39.6808L111.173 58.8488L85.865 67.9864L82.3853 81.6459L103.965 87.1434"
    stroke="black" stroke-opacity="0.53" />
  <path
    d="M119.629 69.5324C119.281 70.8952 117.78 71.6892 116.275 71.3059C114.771 70.9226 113.832 69.5071 114.18 68.1443C114.527 66.7815 116.028 65.9875 117.533 66.3708C119.037 66.7541 119.976 68.1696 119.629 69.5324Z"
    fill="#C4C4C4" />
  <path
    d="M121.584 61.8557C121.237 63.2184 119.736 64.0125 118.231 63.6291C116.726 63.2458 115.788 61.8303 116.135 60.4675C116.482 59.1048 117.984 58.3107 119.488 58.6941C120.993 59.0774 121.931 60.4929 121.584 61.8557Z"
    fill="#C4C4C4" />
  <path d="M66.3975 126.925L87.0065 132.175L82.0354 151.689L61.4264 146.439L66.3975 126.925Z" fill="#C4C4C4" />
  <path d="M66.3975 126.925L87.0065 132.175L82.0354 151.689L61.4264 146.439L66.3975 126.925Z" fill="#C4C4C4" />
  <path d="M66.3975 126.925L87.0065 132.175L82.0354 151.689L61.4264 146.439L66.3975 126.925Z" fill="#C4C4C4" />
  <path d="M66.3975 126.925L87.0065 132.175L82.0354 151.689L61.4264 146.439L66.3975 126.925Z" fill="#C4C4C4" />
  <path d="M59.7693 152.943L80.3783 158.193L75.4072 177.707L54.7982 172.457L59.7693 152.943Z" fill="#C4C4C4" />
  <path d="M59.7693 152.943L80.3783 158.193L75.4072 177.707L54.7982 172.457L59.7693 152.943Z" fill="#C4C4C4" />
  <path d="M59.7693 152.943L80.3783 158.193L75.4072 177.707L54.7982 172.457L59.7693 152.943Z" fill="#C4C4C4" />
  <path d="M59.7693 152.943L80.3783 158.193L75.4072 177.707L54.7982 172.457L59.7693 152.943Z" fill="#C4C4C4" />
  <path d="M94.7349 134.144L115.344 139.394L110.373 158.908L89.7638 153.658L94.7349 134.144Z" fill="#C4C4C4" />
  <path d="M94.7349 134.144L115.344 139.394L110.373 158.908L89.7638 153.658L94.7349 134.144Z" fill="#C4C4C4" />
  <path d="M94.7349 134.144L115.344 139.394L110.373 158.908L89.7638 153.658L94.7349 134.144Z" fill="#C4C4C4" />
  <path d="M94.7349 134.144L115.344 139.394L110.373 158.908L89.7638 153.658L94.7349 134.144Z" fill="#C4C4C4" />
  <path d="M88.1067 160.162L108.716 165.412L103.745 184.926L83.1356 179.676L88.1067 160.162Z" fill="#C4C4C4" />
  <path d="M88.1067 160.162L108.716 165.412L103.745 184.926L83.1356 179.676L88.1067 160.162Z" fill="#C4C4C4" />
  <path d="M88.1067 160.162L108.716 165.412L103.745 184.926L83.1356 179.676L88.1067 160.162Z" fill="#C4C4C4" />
  <path d="M88.1067 160.162L108.716 165.412L103.745 184.926L83.1356 179.676L88.1067 160.162Z" fill="#C4C4C4" />
  <path d="M123.072 141.363L143.681 146.613L138.71 166.127L118.101 160.877L123.072 141.363Z" fill="#C4C4C4" />
  <path d="M123.072 141.363L143.681 146.613L138.71 166.127L118.101 160.877L123.072 141.363Z" fill="#C4C4C4" />
  <path d="M123.072 141.363L143.681 146.613L138.71 166.127L118.101 160.877L123.072 141.363Z" fill="#C4C4C4" />
  <path d="M123.072 141.363L143.681 146.613L138.71 166.127L118.101 160.877L123.072 141.363Z" fill="#C4C4C4" />
  <path d="M116.444 167.381L137.053 172.631L132.082 192.145L111.473 186.895L116.444 167.381Z" fill="#C4C4C4" />
  <path d="M116.444 167.381L137.053 172.631L132.082 192.145L111.473 186.895L116.444 167.381Z" fill="#C4C4C4" />
  <path d="M116.444 167.381L137.053 172.631L132.082 192.145L111.473 186.895L116.444 167.381Z" fill="#C4C4C4" />
  <path d="M116.444 167.381L137.053 172.631L132.082 192.145L111.473 186.895L116.444 167.381Z" fill="#C4C4C4" />
  <path d="M76.9218 204.068L97.5308 209.318L92.5597 228.831L71.9506 223.581L76.9218 204.068Z" fill="#C4C4C4" />
  <path d="M76.9218 204.068L97.5308 209.318L92.5597 228.831L71.9506 223.581L76.9218 204.068Z" fill="#C4C4C4" />
  <path d="M76.9218 204.068L97.5308 209.318L92.5597 228.831L71.9506 223.581L76.9218 204.068Z" fill="#C4C4C4" />
  <path d="M76.9218 204.068L97.5308 209.318L92.5597 228.831L71.9506 223.581L76.9218 204.068Z" fill="#C4C4C4" />
  <rect x="69.293" y="90.4322" width="96.589" height="10.9074" transform="rotate(14.2922 69.293 90.4322)"
    fill="#C4C4C4" />
  <ellipse cx="56.4032" cy="209.231" rx="10.6336" ry="10.0684" transform="rotate(14.2922 56.4032 209.231)"
    fill="#C4C4C4" />
  <ellipse cx="113.078" cy="223.669" rx="10.6336" ry="10.0684" transform="rotate(14.2922 113.078 223.669)"
    fill="#C4C4C4" />
</svg>